<svg width="18" height="16" viewBox="0 0 18 16" fill="none" xmlns="http://www.w3.org/2000/svg">
<path fill-rule="evenodd" clip-rule="evenodd" d="M14.5852 14.6669C16.1036 14.6669 17.3335 13.4523 17.3335 11.9528V9.79238C16.3287 9.79238 15.5195 8.99327 15.5195 8.00104C15.5195 7.0088 16.3287 6.20883 17.3335 6.20883L17.3326 4.04755C17.3326 2.54804 16.1019 1.3335 14.5843 1.3335H3.41585C1.89833 1.3335 0.667617 2.54804 0.667617 4.04755L0.666748 6.27922C1.67148 6.27922 2.48065 7.0088 2.48065 8.00104C2.48065 8.99327 1.67148 9.79238 0.666748 9.79238V11.9528C0.666748 13.4523 1.89659 14.6669 3.41498 14.6669H14.5852Z" stroke="white" stroke-width="1.25" stroke-linecap="round" stroke-linejoin="round"/>
</svg>
